<?xml version="1.0" encoding="UTF-8" standalone="no"?>
<!DOCTYPE svg PUBLIC "-//W3C//DTD SVG 1.1//EN" "http://www.w3.org/Graphics/SVG/1.1/DTD/svg11.dtd">
<svg width="100%" height="100%" viewBox="0 0 278 298" version="1.1" xmlns="http://www.w3.org/2000/svg" xmlns:xlink="http://www.w3.org/1999/xlink" xml:space="preserve" xmlns:serif="http://www.serif.com/" style="fill-rule:evenodd;clip-rule:evenodd;stroke-linecap:round;stroke-linejoin:round;stroke-miterlimit:1.5;">
    <g transform="matrix(1,0,0,1,-1302.17,-76.2848)">
        <g id="Watermelon" transform="matrix(0.27315,0,0,0.27315,1293.23,-37.4471)">
            <g id="strings">
                <path d="M237.497,840.268C237.497,840.268 235.749,791.776 313.261,770.715C390.774,749.655 413.356,623.811 413.356,623.811C413.356,623.811 404.175,609.258 479.718,575.163C555.261,541.069 546.527,540.279 540,520.243C533.473,500.207 434.51,416.784 386.714,427.281C338.917,437.779 354.724,528.344 442.87,530.102C531.015,531.859 512.92,522.565 586.025,523.251C659.129,523.937 659.989,512.702 676.656,495.067C693.323,477.432 733.897,442.05 729.448,479.791C724.998,517.532 680.801,539.739 627.135,536.046C573.469,532.352 504.568,482.477 492.171,569.491C479.774,656.505 496.695,682.809 514.898,700.125C533.102,717.44 532.942,757.075 526.284,781.072C519.625,805.069 542.14,814.069 558.641,829.219C575.142,844.37 562.197,848.044 575.993,864.058C589.789,880.072 576.35,879.874 602.381,892.998" style="fill:none;stroke:rgb(32,118,72);stroke-width:20px;"/>
                <path d="M834.598,858.875C834.598,858.875 782.375,857.409 765.088,813.292C747.801,769.174 727.065,716.822 684.78,659.685C642.496,602.548 679.089,575.373 558.641,521.982C500.402,496.166 524.156,525.525 540,530.332C555.844,535.139 612.183,535.294 612.813,618.266C613.443,701.238 625.763,650.815 626.191,703.71C626.618,756.605 633.041,758.987 635.551,786.715C638.06,814.443 629.433,814.45 648.684,829.219" style="fill:none;stroke:rgb(32,118,72);stroke-width:20px;"/>
                <path d="M131.017,1257.25C131.017,1257.25 352.152,1353.71 521.507,1382.14C545.887,1386.24 499.724,1403.93 558.641,1449.61C617.559,1495.28 641.558,1458.74 678.053,1448.37C714.548,1438.01 661.822,1496.52 638.769,1446.55C615.717,1396.57 733.531,1400.96 767.339,1386.97C801.147,1372.99 860.48,1287.27 882.268,1264.89" style="fill:none;stroke:rgb(32,118,72);stroke-width:20px;"/>
                <path d="M219.003,1493.91C219.003,1493.91 246.021,1388.81 303.431,1389.89C360.842,1390.97 355.156,1392.5 368.332,1443.14C381.507,1493.78 414.322,1409.57 483.64,1451.45C515.702,1470.82 452.628,1434.77 472.176,1387.96C485.399,1356.3 558.641,1374.64 558.641,1374.64C558.641,1374.64 518.281,1371.44 521.507,1335.6C524.733,1299.76 574.063,1274.19 521.507,1277.3C495.063,1278.87 455.059,1345.25 474.745,1291.15" style="fill:none;stroke:rgb(32,118,72);stroke-width:20px;"/>
                <path d="M526.534,1381.67L1003.17,1269.42" style="fill:none;stroke:rgb(32,118,72);stroke-width:20px;"/>
                <path d="M511.3,1211.44C511.3,1211.44 534.931,1240.43 567.091,1211.01" style="fill:none;stroke:rgb(32,118,72);stroke-width:20px;"/>
            </g>
            <path d="M34.006,1220.88C52.163,1152.44 79.012,932.303 222.796,832.574C277.944,794.324 555.417,1152.92 523.779,1210.94C497.369,1259.37 4.401,1332.46 34.006,1220.88Z" style="fill:rgb(214,59,75);"/>
            <path d="M34.006,1220.88C52.163,1152.44 79.012,932.303 222.796,832.574C277.944,794.324 555.417,1152.92 523.779,1210.94C497.369,1259.37 4.401,1332.46 34.006,1220.88ZM501.073,1198.41C500.899,1196.09 500.528,1192.27 499.836,1189.4C497.298,1178.9 492.18,1166.23 485.26,1152.03C449.623,1078.84 367.747,969.731 300.663,904.374C281.246,885.458 263.245,870.287 248.082,861.303C243.49,858.582 236.873,856.13 234.133,855.166C168.424,902.107 129.79,976.455 104.855,1046.81C78.19,1122.05 67.151,1193.44 58.17,1227.29C56.865,1232.21 60.545,1235.03 65.168,1237.71C78.582,1245.49 99.331,1249.71 124.253,1252.22C217.132,1261.57 362.724,1242.3 447.896,1218.68C466.473,1213.53 482.03,1208.24 493.184,1202.91C495.934,1201.6 499.069,1199.69 501.073,1198.41Z" style="fill:rgb(122,186,90);"/>
            <path d="M558.651,1207.46C560.319,1156.85 636.199,960.22 816.28,834.949C826.325,827.961 834.754,827.026 840.573,831.609C896.87,875.948 1094.08,1182.29 1038.46,1262C995.691,1323.28 556.27,1279.71 558.651,1207.46Z" style="fill:rgb(214,59,75);"/>
            <path d="M558.651,1207.46C560.319,1156.85 636.199,960.22 816.28,834.949C826.325,827.961 834.754,827.026 840.573,831.609C896.87,875.948 1094.08,1182.29 1038.46,1262C995.691,1323.28 556.27,1279.71 558.651,1207.46ZM583.754,1206.15C585.587,1207.81 591.466,1213.01 596.728,1215.93C611.963,1224.41 633.756,1231.88 659.387,1238.47C748.446,1261.39 881.841,1272.41 963.836,1262.62C979.902,1260.69 993.833,1258.01 1004.72,1254.28C1010.73,1252.21 1015.76,1250.84 1017.96,1247.69C1023.5,1239.74 1023.97,1228.18 1022.84,1214.55C1021.28,1195.86 1015.6,1174.06 1007.31,1150.59C968.207,1039.85 871.642,894.036 830.25,855.685C709.107,940.07 637.028,1058 604.113,1137.88C591.69,1168.03 584.8,1192.19 583.754,1206.15Z" style="fill:rgb(122,186,90);"/>
            <g transform="matrix(1,0,0,1,-12.7426,4.58168)">
                <path d="M255.364,1007.74C247.111,1009 232.77,988.106 204.219,1011.25C190.433,1022.43 195.551,1046.42 192.644,1053.29C189.736,1060.16 175.103,1067.7 176.315,1100.91C177.508,1133.59 188.279,1132.63 199.725,1138.05C211.171,1143.46 202.313,1162.42 226.061,1175.8C239.656,1183.45 259.182,1182.14 277.068,1173.06C284.706,1169.19 297.022,1187.22 335.998,1164.06C352.207,1154.43 356.369,1140.23 357.285,1126.68C358.043,1115.45 375.88,1097.02 373.676,1085.24C370.802,1069.88 362.768,1045.79 335.336,1045.48C323.269,1045.34 339.099,1013.32 304.378,1002.17C268.502,990.642 263.617,1006.48 255.364,1007.74Z" style="fill:white;"/>
                <g>
                    <g transform="matrix(0.98792,-0.154966,0.154966,0.98792,-159.781,55.7161)">
                        <path d="M279.549,1071.13C270.662,1068.35 258.389,1034.71 267.745,1017.2C281.699,991.098 336.4,1029.81 322.629,1047.95C311.422,1062.72 290.554,1074.58 279.549,1071.13Z"/>
                    </g>
                    <g transform="matrix(0.575901,0.81752,-0.81752,0.575901,1016.04,248.788)">
                        <path d="M270.902,1075.69C262.014,1072.91 258.389,1034.71 267.745,1017.2C281.699,991.098 328.949,1017.95 319.587,1038.72C308.068,1064.27 281.907,1079.14 270.902,1075.69Z"/>
                    </g>
                    <g transform="matrix(-0.561843,0.827244,-0.827244,-0.561843,1327.97,1480.23)">
                        <path d="M279.504,1068.26C270.617,1065.48 252.006,1027.06 260.519,1009.13C276.069,976.382 337.557,1024.99 322.629,1047.95C312.526,1063.5 290.509,1071.71 279.504,1068.26Z"/>
                    </g>
                    <g transform="matrix(-0.999963,-0.00862159,0.00862159,-0.999963,528.868,2183.5)">
                        <path d="M274.638,1071.88C268.867,1069.2 259.286,1028.19 270.542,1018.86C305.142,990.18 340.34,1019.26 315.191,1048.75C303.161,1062.86 285.095,1076.74 274.638,1071.88Z"/>
                    </g>
                    <g transform="matrix(-0.44661,-0.894729,0.894729,-0.44661,-587.53,1823.85)">
                        <path d="M279.504,1068.26C270.617,1065.48 259.459,1035.33 268.816,1017.83C285.328,986.941 338.383,1026.1 322.629,1047.95C311.788,1062.99 290.509,1071.71 279.504,1068.26Z"/>
                    </g>
                    <g transform="matrix(0.447976,-0.731244,0.819054,0.501771,-747.689,735.978)">
                        <path d="M276.606,1070.13C267.718,1067.35 259.703,1035.35 267.745,1017.2C285.25,977.709 339.361,1012.79 321.848,1043.45C312.653,1059.55 287.611,1073.58 276.606,1070.13Z"/>
                    </g>
                </g>
            </g>
            <g transform="matrix(-0.471885,-0.900314,0.880497,-0.485959,-16.6465,1877.16)">
                <path d="M255.364,1007.74C247.111,1009 232.77,988.106 204.219,1011.25C190.433,1022.43 195.551,1046.42 192.644,1053.29C189.736,1060.16 175.103,1067.7 176.315,1100.91C177.508,1133.59 188.279,1132.63 199.725,1138.05C211.171,1143.46 202.313,1162.42 226.061,1175.8C239.656,1183.45 259.182,1182.14 277.068,1173.06C284.706,1169.19 297.022,1187.22 335.998,1164.06C352.207,1154.43 356.369,1140.23 357.285,1126.68C358.043,1115.45 375.88,1097.02 373.676,1085.24C370.802,1069.88 362.768,1045.79 335.336,1045.48C323.269,1045.34 339.099,1013.32 304.378,1002.17C268.502,990.642 263.617,1006.48 255.364,1007.74Z" style="fill:rgb(255,245,246);"/>
                <g>
                    <g transform="matrix(0.98792,-0.154966,0.154966,0.98792,-159.781,55.7161)">
                        <path d="M279.549,1071.13C270.662,1068.35 258.389,1034.71 267.745,1017.2C281.699,991.098 336.4,1029.81 322.629,1047.95C311.422,1062.72 290.554,1074.58 279.549,1071.13Z"/>
                    </g>
                    <g transform="matrix(0.575901,0.81752,-0.81752,0.575901,1016.04,248.788)">
                        <path d="M270.902,1075.69C262.014,1072.91 258.389,1034.71 267.745,1017.2C281.699,991.098 328.949,1017.95 319.587,1038.72C308.068,1064.27 281.907,1079.14 270.902,1075.69Z"/>
                    </g>
                    <g transform="matrix(-0.561843,0.827244,-0.827244,-0.561843,1327.97,1480.23)">
                        <path d="M279.504,1068.26C270.617,1065.48 252.006,1027.06 260.519,1009.13C276.069,976.382 337.557,1024.99 322.629,1047.95C312.526,1063.5 290.509,1071.71 279.504,1068.26Z"/>
                    </g>
                    <g transform="matrix(-0.999963,-0.00862159,0.00862159,-0.999963,528.868,2183.5)">
                        <path d="M274.638,1071.88C268.867,1069.2 259.286,1028.19 270.542,1018.86C305.142,990.18 340.34,1019.26 315.191,1048.75C303.161,1062.86 285.095,1076.74 274.638,1071.88Z"/>
                    </g>
                    <g transform="matrix(-0.44661,-0.894729,0.894729,-0.44661,-587.53,1823.85)">
                        <path d="M279.504,1068.26C270.617,1065.48 259.459,1035.33 268.816,1017.83C285.328,986.941 338.383,1026.1 322.629,1047.95C311.788,1062.99 290.509,1071.71 279.504,1068.26Z"/>
                    </g>
                    <g transform="matrix(0.447976,-0.731244,0.819054,0.501771,-747.689,735.978)">
                        <path d="M276.606,1070.13C267.718,1067.35 259.703,1035.35 267.745,1017.2C285.25,977.709 339.361,1012.79 321.848,1043.45C312.653,1059.55 287.611,1073.58 276.606,1070.13Z"/>
                    </g>
                </g>
            </g>
        </g>
    </g>
</svg>
