<?xml version="1.0" encoding="UTF-8" standalone="no"?>
<!DOCTYPE svg PUBLIC "-//W3C//DTD SVG 1.1//EN" "http://www.w3.org/Graphics/SVG/1.1/DTD/svg11.dtd">
<svg width="100%" height="100%" viewBox="0 0 1000 1000" version="1.1" xmlns="http://www.w3.org/2000/svg" xmlns:xlink="http://www.w3.org/1999/xlink" xml:space="preserve" xmlns:serif="http://www.serif.com/" style="fill-rule:evenodd;clip-rule:evenodd;stroke-linejoin:round;stroke-miterlimit:2;">
    <g transform="matrix(-0.415251,-0.792262,0.774823,-0.427636,9.7343,1306.96)">
        <g id="Watermelon">
            <g>
                <g id="flower_bg" transform="matrix(-0.475479,0.880899,-0.861509,-0.461709,1611.39,868.027)">
                    <path d="M255.364,1007.74C247.111,1009 232.77,988.106 204.219,1011.25C190.433,1022.43 195.551,1046.42 192.644,1053.29C189.736,1060.16 175.103,1067.7 176.315,1100.91C177.508,1133.59 188.279,1132.63 199.725,1138.05C211.171,1143.46 202.313,1162.42 226.061,1175.8C239.656,1183.45 259.182,1182.14 277.068,1173.06C284.706,1169.19 297.022,1187.22 335.998,1164.06C352.207,1154.43 356.369,1140.23 357.285,1126.68C358.043,1115.45 375.88,1097.02 373.676,1085.24C370.802,1069.88 362.768,1045.79 335.336,1045.48C323.269,1045.34 339.099,1013.32 304.378,1002.17C268.502,990.642 263.617,1006.48 255.364,1007.74Z" style="fill:white;"/>
                </g>
                <path id="flower_bg1" serif:id="flower_bg" d="M255.364,1007.74C247.111,1009 232.77,988.106 204.219,1011.25C190.433,1022.43 195.551,1046.42 192.644,1053.29C189.736,1060.16 175.103,1067.7 176.315,1100.91C177.508,1133.59 188.279,1132.63 199.725,1138.05C211.171,1143.46 202.313,1162.42 226.061,1175.8C239.656,1183.45 259.182,1182.14 277.068,1173.06C284.706,1169.19 297.022,1187.22 335.998,1164.06C352.207,1154.43 356.369,1140.23 357.285,1126.68C358.043,1115.45 375.88,1097.02 373.676,1085.24C370.802,1069.88 362.768,1045.79 335.336,1045.48C323.269,1045.34 339.099,1013.32 304.378,1002.17C268.502,990.642 263.617,1006.48 255.364,1007.74Z" style="fill:rgb(255,245,246);"/>
            </g>
        </g>
    </g>
</svg>
