<?xml version="1.0" encoding="UTF-8" standalone="no"?>
<!DOCTYPE svg PUBLIC "-//W3C//DTD SVG 1.1//EN" "http://www.w3.org/Graphics/SVG/1.1/DTD/svg11.dtd">
<svg width="100%" height="100%" viewBox="0 0 1000 1000" version="1.1" xmlns="http://www.w3.org/2000/svg" xmlns:xlink="http://www.w3.org/1999/xlink" xml:space="preserve" xmlns:serif="http://www.serif.com/" style="fill-rule:evenodd;clip-rule:evenodd;stroke-linejoin:round;stroke-miterlimit:2;">
    <g transform="matrix(-0.415251,-0.792262,0.774823,-0.427636,9.7343,1306.96)">
        <g id="Watermelon">
            <g>
                <g id="flower_petals" transform="matrix(-0.475479,0.880899,-0.861509,-0.461709,1611.39,868.027)">
                    <g transform="matrix(0.98792,-0.154966,0.154966,0.98792,-159.781,55.7161)">
                        <path d="M279.549,1071.13C270.662,1068.35 258.389,1034.71 267.745,1017.2C281.699,991.098 336.4,1029.81 322.629,1047.95C311.422,1062.72 290.554,1074.58 279.549,1071.13Z"/>
                    </g>
                    <g transform="matrix(0.575901,0.81752,-0.81752,0.575901,1016.04,248.788)">
                        <path d="M270.902,1075.69C262.014,1072.91 258.389,1034.71 267.745,1017.2C281.699,991.098 328.949,1017.95 319.587,1038.72C308.068,1064.27 281.907,1079.14 270.902,1075.69Z"/>
                    </g>
                    <g transform="matrix(-0.561843,0.827244,-0.827244,-0.561843,1327.97,1480.23)">
                        <path d="M279.504,1068.26C270.617,1065.48 252.006,1027.06 260.519,1009.13C276.069,976.382 337.557,1024.99 322.629,1047.95C312.526,1063.5 290.509,1071.71 279.504,1068.26Z"/>
                    </g>
                    <g transform="matrix(-0.999963,-0.00862159,0.00862159,-0.999963,528.868,2183.5)">
                        <path d="M274.638,1071.88C268.867,1069.2 259.286,1028.19 270.542,1018.86C305.142,990.18 340.34,1019.26 315.191,1048.75C303.161,1062.86 285.095,1076.74 274.638,1071.88Z"/>
                    </g>
                    <g transform="matrix(-0.44661,-0.894729,0.894729,-0.44661,-587.53,1823.85)">
                        <path d="M279.504,1068.26C270.617,1065.48 259.459,1035.33 268.816,1017.83C285.328,986.941 338.383,1026.1 322.629,1047.95C311.788,1062.99 290.509,1071.71 279.504,1068.26Z"/>
                    </g>
                    <g transform="matrix(0.447976,-0.731244,0.819054,0.501771,-747.689,735.978)">
                        <path d="M276.606,1070.13C267.718,1067.35 259.703,1035.35 267.745,1017.2C285.25,977.709 339.361,1012.79 321.848,1043.45C312.653,1059.55 287.611,1073.58 276.606,1070.13Z"/>
                    </g>
                </g>
                <g id="flower_petals1" serif:id="flower_petals">
                    <g transform="matrix(0.98792,-0.154966,0.154966,0.98792,-159.781,55.7161)">
                        <path d="M279.549,1071.13C270.662,1068.35 258.389,1034.71 267.745,1017.2C281.699,991.098 336.4,1029.81 322.629,1047.95C311.422,1062.72 290.554,1074.58 279.549,1071.13Z"/>
                    </g>
                    <g transform="matrix(0.575901,0.81752,-0.81752,0.575901,1016.04,248.788)">
                        <path d="M270.902,1075.69C262.014,1072.91 258.389,1034.71 267.745,1017.2C281.699,991.098 328.949,1017.95 319.587,1038.72C308.068,1064.27 281.907,1079.14 270.902,1075.69Z"/>
                    </g>
                    <g transform="matrix(-0.561843,0.827244,-0.827244,-0.561843,1327.97,1480.23)">
                        <path d="M279.504,1068.26C270.617,1065.48 252.006,1027.06 260.519,1009.13C276.069,976.382 337.557,1024.99 322.629,1047.95C312.526,1063.5 290.509,1071.71 279.504,1068.26Z"/>
                    </g>
                    <g transform="matrix(-0.999963,-0.00862159,0.00862159,-0.999963,528.868,2183.5)">
                        <path d="M274.638,1071.88C268.867,1069.2 259.286,1028.19 270.542,1018.86C305.142,990.18 340.34,1019.26 315.191,1048.75C303.161,1062.86 285.095,1076.74 274.638,1071.88Z"/>
                    </g>
                    <g transform="matrix(-0.44661,-0.894729,0.894729,-0.44661,-587.53,1823.85)">
                        <path d="M279.504,1068.26C270.617,1065.48 259.459,1035.33 268.816,1017.83C285.328,986.941 338.383,1026.1 322.629,1047.95C311.788,1062.99 290.509,1071.71 279.504,1068.26Z"/>
                    </g>
                    <g transform="matrix(0.447976,-0.731244,0.819054,0.501771,-747.689,735.978)">
                        <path d="M276.606,1070.13C267.718,1067.35 259.703,1035.35 267.745,1017.2C285.25,977.709 339.361,1012.79 321.848,1043.45C312.653,1059.55 287.611,1073.58 276.606,1070.13Z"/>
                    </g>
                </g>
            </g>
        </g>
    </g>
</svg>
