<?xml version="1.0" encoding="UTF-8" standalone="no"?>
<!DOCTYPE svg PUBLIC "-//W3C//DTD SVG 1.1//EN" "http://www.w3.org/Graphics/SVG/1.1/DTD/svg11.dtd">
<svg width="100%" height="100%" viewBox="0 0 1000 1000" version="1.1" xmlns="http://www.w3.org/2000/svg" xmlns:xlink="http://www.w3.org/1999/xlink" xml:space="preserve" xmlns:serif="http://www.serif.com/" style="fill-rule:evenodd;clip-rule:evenodd;stroke-linejoin:round;stroke-miterlimit:2;">
    <g id="Watermelon" transform="matrix(0.879984,0,0,0.879984,24.383,-344.911)">
        <g>
            <path id="strings" d="M552.287,543.098C550.659,546.51 547.752,550.059 542.807,553.862C535.798,559.253 523.154,566.063 501.335,576.256C491.16,653.089 505.207,677.104 521.79,692.879C530.465,701.131 535.94,713.492 538.519,727.359C542.047,746.332 540.262,768.098 535.92,783.745C533.185,793.602 538.319,799.494 544.761,805.086C551.1,810.589 558.734,815.729 565.404,821.853C574.424,830.135 576.657,836.13 577.714,841.476C578.609,845.999 577.189,850.125 583.569,857.531C588.806,863.61 590.871,867.889 592.184,871.284C592.866,873.048 592.996,874.466 593.912,875.874C595.371,878.119 598.701,879.944 606.883,884.069C611.811,886.553 613.795,892.572 611.311,897.5C608.826,902.428 602.808,904.412 597.88,901.928C581,893.418 577.581,888.379 575.481,883.72C574.123,880.705 574.204,877.303 568.417,870.585C561.015,861.993 559.521,855.966 558.774,850.626C558.19,846.455 558.793,842.935 551.878,836.585C543.468,828.864 533.556,822.671 526.564,815.389C517.314,805.755 512.158,794.579 516.648,778.398C520.296,765.249 521.821,746.959 518.856,731.015C517.106,721.602 513.895,712.972 508.006,707.37C489.871,690.12 471.661,664.746 480.03,586.01C452.181,598.818 437.083,608.51 429.045,615.634C425.284,618.968 423.998,621.965 423.199,625.577C422.4,629.189 414.774,672.558 390.668,714.858C373.877,744.323 349.476,771.238 315.883,780.366C247.542,798.934 247.491,839.908 247.491,839.908C247.69,845.423 243.373,850.062 237.857,850.261C232.342,850.46 227.703,846.144 227.504,840.628C227.504,840.628 226.669,825.892 237.84,808.077C247.939,791.971 268.336,772.559 310.639,761.065C339.058,753.344 359.087,729.882 373.292,704.956C393.091,670.212 401.508,632.071 403.189,623.719C403.189,623.719 404.526,614.716 406.972,611.253C413.543,601.949 426.864,588.047 475.604,566.049C478.221,564.868 480.735,563.728 483.15,562.626C484.768,553.66 487.036,546.115 489.814,539.781C478.262,540.316 463.403,540.513 442.67,540.1C372.57,538.702 344.271,486.254 351.308,451.787C354.748,434.939 365.988,421.595 384.569,417.514C395.623,415.086 409.077,416.7 423.537,421.505C443.108,428.01 464.822,440.313 484.563,454.117C507.406,470.09 527.6,488.036 538.839,500.9C540.001,502.231 541.074,503.524 542.057,504.772C546.322,506.147 551.357,508.015 557.252,510.49C561.369,511.262 565.575,512.217 569.836,513.273C574.721,513.206 580.112,513.195 586.119,513.251C626.594,513.631 643.177,510.829 653.204,504.389C659.757,500.18 663.357,494.58 669.388,488.198C680.381,476.567 701.142,458.316 714.69,454.214C719.177,452.856 723.224,452.747 726.58,453.602L730.951,455.411L734.733,458.542C738.085,462.305 740.759,469.252 739.379,480.962C737.277,498.79 727.817,513.774 712.984,524.948C692.539,540.348 661.387,548.426 626.448,546.022C625.489,545.956 624.524,545.876 623.556,545.782C649.923,564.414 659.119,580.845 666.081,598.18C672.585,614.375 676.574,631.786 692.819,653.736C735.745,711.739 756.85,764.857 774.399,809.643C788.292,845.098 827.702,830.208 827.702,830.208C832.886,828.314 838.632,830.986 840.526,836.17C842.419,841.354 839.748,847.1 834.564,848.994C834.564,848.994 776.461,869.724 755.778,816.94C738.753,773.491 718.386,721.904 676.742,665.634C663.34,647.524 657.393,632.287 652.261,618.273C644.849,598.031 639.023,580.936 609.671,560.61C617.341,574.035 622.618,592.483 622.813,618.19C623.149,662.562 626.14,664.288 629.439,668.627C632.43,672.561 635.983,677.985 636.19,703.629C636.614,756.005 643.025,758.358 645.51,785.814C646.317,794.733 646.058,800.976 645.846,805.775C645.705,808.942 645.14,811.027 646.098,813.073C647.232,815.493 649.938,817.577 654.771,821.285C659.15,824.645 659.977,830.928 656.618,835.306C653.258,839.685 646.976,840.513 642.597,837.153C633.641,830.282 629.725,825.533 627.755,821.046C626.182,817.462 625.655,813.861 625.714,809.274C625.774,804.558 626.549,798.204 625.591,787.616C623.058,759.616 616.623,757.205 616.191,703.791C616.018,682.364 614.118,681.73 611.515,678.183C607.946,673.319 603.163,664.438 602.813,618.342C602.588,588.733 594.933,570.778 584.297,559.818C574.357,549.574 562.215,545.395 552.287,543.098ZM515.439,505.28C504.598,494.603 489.572,482.024 473.102,470.508C455.006,457.854 435.169,446.447 417.229,440.485C406.68,436.979 396.924,435.277 388.859,437.049C375.005,440.091 369.103,452.786 370.402,466.564C372.749,491.435 396.947,519.184 443.069,520.104C474.106,520.722 491.962,519.969 505.267,518.764C507.302,517.144 515.439,505.28 515.439,505.28ZM528.556,535.964C523.738,536.568 519.169,537.204 514.146,537.798C511.091,541.274 508.547,545.838 506.493,551.661C512.877,548.529 518.083,545.809 522.302,543.383C526.157,541.166 529.097,539.254 531.279,537.485C530.368,537.015 529.457,536.506 528.556,535.964ZM655.844,525.435C669.472,523.78 681.796,520.119 692.026,514.641C707.238,506.494 717.668,494.294 719.516,478.62C719.74,476.722 719.831,475.072 719.768,473.648C719.241,473.815 718.699,474.007 718.245,474.209C715.496,475.43 712.512,477.26 709.446,479.401C700.099,485.928 690.214,495.28 683.924,501.936C676.621,509.662 671.947,516.121 664.012,521.217C661.649,522.735 658.983,524.149 655.844,525.435ZM464.445,1380.99C306.975,1345.32 138.27,1273.53 138.27,1273.53C133.192,1271.37 130.825,1265.49 132.986,1260.41C135.148,1255.33 141.026,1252.96 146.104,1255.13C146.104,1255.13 323.814,1330.82 483.542,1364.72C486.986,1363.28 490.707,1362.15 494.631,1361.33C501.316,1359.93 508.604,1359.4 515.825,1359.42C512.453,1352.95 510.634,1344.85 511.547,1334.7C512.994,1318.63 522.342,1304.23 529.713,1293.16C531.08,1291.11 532.354,1289.19 533.424,1287.42C530.487,1287.19 526.425,1287.03 522.098,1287.29C517.388,1287.56 512.335,1291.09 507.217,1295.01C496.886,1302.92 487.078,1313.46 481.202,1318.01C479.633,1319.22 478.218,1320.13 477.027,1320.74L472.614,1322.21L469.935,1322.3L467.792,1321.92L464.132,1320.12L461.814,1317.77L460.459,1315.33L459.558,1311.61L459.653,1307.42C460.095,1303.77 461.805,1297.47 465.348,1287.73C467.235,1282.54 472.978,1279.87 478.164,1281.75C481.235,1282.87 483.427,1285.34 484.312,1288.25C487.723,1285.13 491.357,1281.96 495.057,1279.13C503.735,1272.48 512.929,1267.79 520.916,1267.32C532.164,1266.65 539.471,1267.36 543.895,1268.78C545.306,1269.23 546.526,1269.76 547.58,1270.34L551.12,1272.9L553.157,1275.32L554.638,1278.19C556.361,1282.71 555.526,1289.3 551.045,1296.91C545.43,1306.46 532.935,1320.18 531.467,1336.5C529.994,1352.86 541.075,1359.76 549.723,1362.64C552.861,1363.19 555.483,1363.71 557.414,1364.12L843.553,1296.73C852.236,1286.02 859.801,1276.79 865.476,1270.96C869.326,1267.01 875.663,1266.92 879.617,1270.78C883.572,1274.62 883.657,1280.96 879.807,1284.92C878.591,1286.16 877.289,1287.57 875.906,1289.11L1000.87,1259.68C1006.25,1258.42 1011.63,1261.75 1012.9,1267.13C1014.16,1272.5 1010.83,1277.89 1005.46,1279.15L854.698,1314.66C844.177,1327.67 832.235,1342.41 820.137,1355.72C803.166,1374.4 785.681,1390.21 771.161,1396.21C750.75,1404.66 699.928,1406.55 667.53,1417.49C661.168,1419.64 655.607,1422.12 651.458,1425.27C648.683,1427.38 646.573,1429.71 645.977,1432.72C645.423,1435.52 646.15,1438.67 647.85,1442.36C648.963,1444.77 650.138,1446.86 651.37,1448.65C659.073,1444.83 666.889,1441.15 675.322,1438.75C687.587,1435.27 694.275,1438.64 697.041,1441.56L699.249,1444.75L700.371,1448.26L700.469,1452.12L699.23,1456.75C697.413,1461.05 692.87,1466.5 686.342,1470.61C677.223,1476.35 664.499,1479.49 652.371,1474.59C650.959,1474.02 649.545,1473.34 648.14,1472.53C636.165,1478.15 623.778,1482.49 609.358,1481.99C593.707,1481.45 575.404,1475.25 552.514,1457.51C518.213,1430.91 515.864,1411.62 517.178,1399.23C517.437,1396.78 517.977,1393.96 518.449,1391.77C507.908,1389.98 497.214,1387.96 486.426,1385.74C484.236,1387.3 482.472,1389.26 481.404,1391.81C469.812,1419.57 493.637,1442.53 498.986,1448.37C500.22,1449.72 500.98,1450.74 501.307,1451.26L502.688,1454.68L502.836,1457.86L501.956,1460.99L499.877,1463.92L497.155,1465.82L493.975,1466.73L490.383,1466.5C489.557,1466.3 485.891,1464.49 478.469,1460.01C441.33,1437.57 415.975,1456.56 399.052,1464.86C389.836,1469.38 381.939,1471.02 375.606,1468.93C369.138,1466.81 362.58,1460.75 358.654,1445.66C355.404,1433.17 353.327,1423.71 351.14,1416.52C349.574,1411.38 348.292,1407.69 345.679,1405.27C343.221,1403 339.694,1402.17 334.55,1401.45C327.09,1400.4 317.065,1400.15 303.243,1399.89C283.617,1399.52 268.71,1414.51 257.211,1431.62C237.95,1460.28 228.688,1496.4 228.688,1496.4C227.314,1501.75 221.858,1504.97 216.513,1503.6C211.167,1502.23 207.943,1496.77 209.317,1491.42C209.317,1491.42 219.508,1451.87 240.611,1420.46C256.024,1397.52 277.312,1379.4 303.62,1379.89C321.731,1380.24 333.864,1380.71 342.359,1382.52C349.871,1384.12 355.132,1386.77 359.261,1390.59C363.26,1394.29 366.263,1399.21 368.758,1406.12C371.602,1413.98 373.952,1425.03 378.01,1440.63C378.823,1443.75 379.685,1446.23 380.699,1448.13C381.143,1448.96 381.265,1449.74 381.852,1449.93C383.174,1450.37 384.574,1449.4 386.339,1448.68C390.458,1447.01 395.11,1444.38 400.372,1441.68C416.471,1433.43 437.289,1424.59 463.927,1431.9C458.212,1418.55 455.488,1401.97 462.949,1384.11C463.399,1383.03 463.898,1381.99 464.445,1380.99ZM822.757,1322.18L563.913,1383.14C562.158,1384.23 560.055,1384.78 557.852,1384.61L557.722,1384.6L539.287,1388.94C539.249,1389.74 539.16,1390.57 539.022,1391.45C538.41,1395.32 535.609,1400.95 537.574,1408.91C539.66,1417.37 546.888,1427.84 564.768,1441.7C583.122,1455.93 597.504,1461.57 610.052,1462C618.51,1462.3 626.012,1460.24 633.177,1457.32C631.958,1455.31 630.792,1453.13 629.689,1450.74C624.803,1440.14 624.864,1431.24 627.863,1423.76C630.736,1416.59 636.597,1410.49 644.969,1405.63C660.248,1396.77 684.973,1391.86 709.086,1388.14C730.921,1384.77 752.171,1382.43 763.517,1377.73C776.044,1372.55 790.692,1358.39 805.334,1342.27C811.225,1335.79 817.081,1328.97 822.757,1322.18Z" style="fill:rgb(122,186,90);"/>
        </g>
    </g>
</svg>
